<svg width="32" height="32" viewBox="0 0 32 32" xmlns="http://www.w3.org/2000/svg">
<g clip-path="url(#clip0_31_438)">
<path d="M24 2.66667C26.9413 2.66667 29.3333 5.05867 29.3333 8V24C29.3333 26.9413 26.9413 29.3333 24 29.3333H8C5.05867 29.3333 2.66667 26.9413 2.66667 24V8C2.66667 5.05867 5.05867 2.66667 8 2.66667H24ZM24 0H8C3.58133 0 0 3.58133 0 8V24C0 28.4187 3.58133 32 8 32H24C28.4187 32 32 28.4187 32 24V8C32 3.58133 28.4187 0 24 0Z" fill="currentColor"/>
<path d="M16.0003 24C15.2643 24 14.667 23.404 14.667 22.6667V9.33333C14.667 8.59733 15.2643 8 16.0003 8C16.7363 8 17.3337 8.59733 17.3337 9.33333V22.6667C17.3337 23.404 16.7363 24 16.0003 24Z" fill="currentColor"/>
<path d="M8 16C8 15.264 8.596 14.6667 9.33333 14.6667H22.6667C23.4027 14.6667 24 15.264 24 16C24 16.736 23.4027 17.3333 22.6667 17.3333H9.33333C8.596 17.3333 8 16.736 8 16Z" fill="currentColor"/>
</g>
<defs>
<clipPath id="clip0_31_438">
<rect width="32" height="32" fill="white"/>
</clipPath>
</defs>
</svg>
