<svg width="20" height="14" viewBox="0 0 20 14" xmlns="http://www.w3.org/2000/svg">
<path d="M19.68 0.92C19.4993 0.638346 19.2508 0.406537 18.9573 0.245805C18.6638 0.085073 18.3346 0.000557477 18 0H2C1.46957 0 0.960859 0.210714 0.585786 0.585786C0.210714 0.960859 0 1.46957 0 2V12C0 12.5304 0.210714 13.0391 0.585786 13.4142C0.960859 13.7893 1.46957 14 2 14H18C18.5304 14 19.0391 13.7893 19.4142 13.4142C19.7893 13.0391 20 12.5304 20 12V2C19.999 1.61678 19.8879 1.24191 19.68 0.92ZM16.44 2L10.22 6.66C10.1539 6.71028 10.0731 6.73751 9.99 6.73751C9.90692 6.73751 9.82613 6.71028 9.76 6.66L3.55 2H16.44ZM2 12V3.34L8.57 8.27C8.98298 8.57839 9.48458 8.74501 10 8.74501C10.5154 8.74501 11.017 8.57839 11.43 8.27L18 3.34V12H2Z" fill="currentColor"/>
</svg>
