<svg id="invoice" width="32" height="32" viewBox="0 0 32 32" xmlns="http://www.w3.org/2000/svg">
<path d="M18.667 9.33334H8.00033C7.6467 9.33334 7.30757 9.47382 7.05752 9.72387C6.80747 9.97392 6.66699 10.3131 6.66699 10.6667C6.66699 11.0203 6.80747 11.3594 7.05752 11.6095C7.30757 11.8595 7.6467 12 8.00033 12H18.667C19.0206 12 19.3598 11.8595 19.6098 11.6095C19.8598 11.3594 20.0003 11.0203 20.0003 10.6667C20.0003 10.3131 19.8598 9.97392 19.6098 9.72387C19.3598 9.47382 19.0206 9.33334 18.667 9.33334Z" fill="currentColor"/>
<path d="M18.667 14.6667H8.00033C7.6467 14.6667 7.30757 14.8071 7.05752 15.0572C6.80747 15.3072 6.66699 15.6464 6.66699 16C6.66699 16.3536 6.80747 16.6928 7.05752 16.9428C7.30757 17.1929 7.6467 17.3333 8.00033 17.3333H18.667C19.0206 17.3333 19.3598 17.1929 19.6098 16.9428C19.8598 16.6928 20.0003 16.3536 20.0003 16C20.0003 15.6464 19.8598 15.3072 19.6098 15.0572C19.3598 14.8071 19.0206 14.6667 18.667 14.6667Z" fill="currentColor"/>
<path d="M13.3337 20H8.00033C7.6467 20 7.30757 20.1405 7.05752 20.3905C6.80747 20.6406 6.66699 20.9797 6.66699 21.3333C6.66699 21.687 6.80747 22.0261 7.05752 22.2762C7.30757 22.5262 7.6467 22.6667 8.00033 22.6667H13.3337C13.6873 22.6667 14.0264 22.5262 14.2765 22.2762C14.5265 22.0261 14.667 21.687 14.667 21.3333C14.667 20.9797 14.5265 20.6406 14.2765 20.3905C14.0264 20.1405 13.6873 20 13.3337 20Z" fill="currentColor"/>
<path d="M29.333 14.6667H25.333V5.33334C25.333 4.27248 24.9116 3.25506 24.1614 2.50492C23.4113 1.75477 22.3939 1.33334 21.333 1.33334H5.33301C4.27214 1.33334 3.25473 1.75477 2.50458 2.50492C1.75444 3.25506 1.33301 4.27248 1.33301 5.33334V26.6667C1.33301 27.7275 1.75444 28.745 2.50458 29.4951C3.25473 30.2453 4.27214 30.6667 5.33301 30.6667H26.6663C27.7272 30.6667 28.7446 30.2453 29.4948 29.4951C30.2449 28.745 30.6663 27.7275 30.6663 26.6667V16C30.6663 15.6464 30.5259 15.3073 30.2758 15.0572C30.0258 14.8072 29.6866 14.6667 29.333 14.6667ZM22.6663 28H5.33301C4.97939 28 4.64025 27.8595 4.3902 27.6095C4.14015 27.3594 3.99967 27.0203 3.99967 26.6667V5.33334C3.99967 4.97972 4.14015 4.64058 4.3902 4.39053C4.64025 4.14049 4.97939 4.00001 5.33301 4.00001H21.333C21.6866 4.00001 22.0258 4.14049 22.2758 4.39053C22.5259 4.64058 22.6663 4.97972 22.6663 5.33334V28ZM27.9997 26.6667C27.9997 27.0203 27.8592 27.3594 27.6092 27.6095C27.3591 27.8595 27.02 28 26.6663 28H25.333V17.3333H27.9997V26.6667Z" fill="currentColor"/>
</svg>
