<svg width="32" height="32" viewBox="0 0 32 32" xmlns="http://www.w3.org/2000/svg">
<path d="M22.6663 17.3333H19.9997C18.1069 17.3308 16.276 18.0073 14.8397 19.24C13.4903 18.0204 11.7385 17.3415 9.91967 17.3333H8.74634C6.78129 17.3369 4.89772 18.119 3.50822 19.5086C2.11871 20.8981 1.33653 22.7816 1.33301 24.7467V25.3333C1.33301 25.687 1.47348 26.0261 1.72353 26.2762C1.97358 26.5262 2.31272 26.6667 2.66634 26.6667H29.333C29.6866 26.6667 30.0258 26.5262 30.2758 26.2762C30.5259 26.0261 30.6663 25.687 30.6663 25.3333C30.6663 23.2116 29.8235 21.1768 28.3232 19.6765C26.8229 18.1762 24.7881 17.3333 22.6663 17.3333ZM8.74634 20H9.91967C11.109 19.9978 12.2541 20.451 13.1197 21.2667C12.6291 22.0871 12.2946 22.9912 12.133 23.9333V24H3.99967C4.18404 22.8769 4.76367 21.8565 5.63403 21.1231C6.50439 20.3896 7.60819 19.9913 8.74634 20ZM14.8663 24C14.8867 23.8919 14.9134 23.785 14.9463 23.68C14.9463 23.68 14.9463 23.5733 14.9463 23.52C15.1487 22.9727 15.4416 22.4634 15.813 22.0133C16.3138 21.3837 16.9506 20.8755 17.6756 20.5269C18.4006 20.1782 19.1952 19.9981 19.9997 20H22.6663C23.848 20.0009 24.996 20.3942 25.9299 21.1182C26.8639 21.8422 27.5309 22.8558 27.8263 24H14.8663ZM21.333 16C22.3878 16 23.419 15.6872 24.296 15.1012C25.1731 14.5152 25.8567 13.6822 26.2604 12.7077C26.664 11.7331 26.7697 10.6608 26.5639 9.6262C26.3581 8.59163 25.8501 7.64132 25.1042 6.89544C24.3584 6.14956 23.4081 5.64161 22.3735 5.43582C21.3389 5.23004 20.2666 5.33565 19.292 5.73932C18.3175 6.14299 17.4845 6.82658 16.8985 7.70364C16.3125 8.5807 15.9997 9.61185 15.9997 10.6667C15.9997 12.0812 16.5616 13.4377 17.5618 14.4379C18.562 15.4381 19.9185 16 21.333 16ZM21.333 8.00001C21.8604 8.00001 22.376 8.15641 22.8145 8.44943C23.2531 8.74244 23.5949 9.15892 23.7967 9.64619C23.9985 10.1335 24.0513 10.6696 23.9484 11.1869C23.8455 11.7042 23.5916 12.1794 23.2186 12.5523C22.8457 12.9252 22.3705 13.1792 21.8532 13.2821C21.336 13.385 20.7998 13.3322 20.3125 13.1304C19.8253 12.9285 19.4088 12.5867 19.1158 12.1482C18.8227 11.7097 18.6663 11.1941 18.6663 10.6667C18.6663 9.95944 18.9473 9.28116 19.4474 8.78106C19.9475 8.28096 20.6258 8.00001 21.333 8.00001ZM9.33301 16C10.3878 16 11.419 15.6872 12.296 15.1012C13.1731 14.5152 13.8567 13.6822 14.2604 12.7077C14.664 11.7331 14.7697 10.6608 14.5639 9.6262C14.3581 8.59163 13.8501 7.64132 13.1042 6.89544C12.3584 6.14956 11.4081 5.64161 10.3735 5.43582C9.33892 5.23004 8.26657 5.33565 7.29203 5.73932C6.31749 6.14299 5.48454 6.82658 4.8985 7.70364C4.31247 8.5807 3.99967 9.61185 3.99967 10.6667C3.99967 12.0812 4.56158 13.4377 5.56177 14.4379C6.56197 15.4381 7.91852 16 9.33301 16ZM9.33301 8.00001C9.86042 8.00001 10.376 8.15641 10.8145 8.44943C11.2531 8.74244 11.5949 9.15892 11.7967 9.64619C11.9985 10.1335 12.0513 10.6696 11.9484 11.1869C11.8455 11.7042 11.5916 12.1794 11.2186 12.5523C10.8457 12.9252 10.3705 13.1792 9.85325 13.2821C9.33597 13.385 8.79979 13.3322 8.31252 13.1304C7.82525 12.9285 7.40877 12.5867 7.11576 12.1482C6.82274 11.7097 6.66634 11.1941 6.66634 10.6667C6.66634 9.95944 6.94729 9.28116 7.44739 8.78106C7.94749 8.28096 8.62576 8.00001 9.33301 8.00001Z" fill="currentColor"/>
</svg>
