<svg id="dashboard" width="32" height="32" viewBox="0 0 32 32" xmlns="http://www.w3.org/2000/svg">
<path id="d" d="M29.333 14.6667H18.6663C18.3127 14.6667 17.9736 14.5262 17.7235 14.2762C17.4735 14.0261 17.333 13.687 17.333 13.3333V2.66668C17.333 2.31306 17.4735 1.97392 17.7235 1.72387C17.9736 1.47382 18.3127 1.33335 18.6663 1.33335H29.333C29.6866 1.33335 30.0258 1.47382 30.2758 1.72387C30.5259 1.97392 30.6663 2.31306 30.6663 2.66668V13.3333C30.6663 13.687 30.5259 14.0261 30.2758 14.2762C30.0258 14.5262 29.6866 14.6667 29.333 14.6667ZM19.9997 12H27.9997V4.00001H19.9997V12Z" fill="currentColor"/>
<path d="M23.9997 30.6667C22.6811 30.6667 21.3922 30.2757 20.2959 29.5432C19.1995 28.8106 18.3451 27.7694 17.8405 26.5513C17.3359 25.3331 17.2039 23.9926 17.4611 22.6994C17.7183 21.4062 18.3533 20.2183 19.2856 19.286C20.218 18.3536 21.4059 17.7187 22.6991 17.4615C23.9923 17.2042 25.3327 17.3362 26.5509 17.8408C27.7691 18.3454 28.8103 19.1999 29.5428 20.2962C30.2754 21.3926 30.6663 22.6815 30.6663 24C30.6642 25.7675 29.9612 27.462 28.7114 28.7117C27.4616 29.9615 25.7671 30.6646 23.9997 30.6667ZM23.9997 20C23.2086 20 22.4352 20.2346 21.7774 20.6742C21.1196 21.1137 20.6069 21.7384 20.3042 22.4693C20.0014 23.2002 19.9222 24.0045 20.0765 24.7804C20.2309 25.5563 20.6118 26.269 21.1713 26.8285C21.7307 27.3879 22.4434 27.7688 23.2193 27.9232C23.9952 28.0775 24.7995 27.9983 25.5304 27.6955C26.2613 27.3928 26.886 26.8801 27.3256 26.2223C27.7651 25.5645 27.9997 24.7912 27.9997 24C27.9997 22.9392 27.5783 21.9217 26.8281 21.1716C26.078 20.4215 25.0605 20 23.9997 20Z" fill="currentColor"/>
<path d="M13.333 17.3333H2.66634C2.31272 17.3333 1.97358 17.4738 1.72353 17.7238C1.47348 17.9739 1.33301 18.313 1.33301 18.6666V29.3333C1.33301 29.6869 1.47348 30.0261 1.72353 30.2761C1.97358 30.5262 2.31272 30.6666 2.66634 30.6666H13.333C13.6866 30.6666 14.0258 30.5262 14.2758 30.2761C14.5259 30.0261 14.6663 29.6869 14.6663 29.3333V18.6666C14.6663 18.313 14.5259 17.9739 14.2758 17.7238C14.0258 17.4738 13.6866 17.3333 13.333 17.3333ZM11.9997 28H3.99967V20H11.9997V28Z" fill="currentColor"/>
<path d="M13.333 14.6667H2.66634C2.31272 14.6667 1.97358 14.5262 1.72353 14.2762C1.47348 14.0261 1.33301 13.687 1.33301 13.3333V2.66668C1.33301 2.31306 1.47348 1.97392 1.72353 1.72387C1.97358 1.47382 2.31272 1.33335 2.66634 1.33335H13.333C13.6866 1.33335 14.0258 1.47382 14.2758 1.72387C14.5259 1.97392 14.6663 2.31306 14.6663 2.66668V13.3333C14.6663 13.687 14.5259 14.0261 14.2758 14.2762C14.0258 14.5262 13.6866 14.6667 13.333 14.6667ZM3.99967 12H11.9997V4.00001H3.99967V12Z" fill="currentColor"/>
</svg>
