<svg width="20" height="20" viewBox="0 0 20 20" xmlns="http://www.w3.org/2000/svg">
<path d="M7.90383 5.85294C8.36802 4.78732 8.13328 3.54616 7.31207 2.7237L5.41594 0.828144C4.78604 0.190609 3.88801 -0.105044 3.00263 0.0335678C2.10724 0.165091 1.3295 0.718751 0.911964 1.52183C-0.00484056 3.24751 -0.240676 5.25451 0.251153 7.14573C1.46281 11.9459 8.05927 18.5481 12.8577 19.7509C13.5055 19.9152 14.1711 19.9989 14.8393 20C16.1092 19.9992 17.3594 19.687 18.4807 19.0909C19.8641 18.3693 20.4007 16.6626 19.6792 15.2789C19.5468 15.0249 19.3765 14.7925 19.1742 14.5897L17.279 12.6933C16.4563 11.8718 15.2151 11.637 14.1494 12.1014C13.6521 12.3158 13.1985 12.62 12.8114 12.9987C12.3478 13.4651 10.638 12.7896 8.92638 11.0786C7.21475 9.36765 6.54122 7.65757 7.00206 7.19208C7.38231 6.80483 7.68799 6.35092 7.90383 5.85294ZM7.63842 12.366C9.72271 14.4488 12.526 15.8534 14.0922 14.2861C14.3228 14.0652 14.5917 13.888 14.8857 13.7633C15.2633 13.6024 15.7008 13.6885 15.9892 13.9806L17.8844 15.8762C18.1103 16.0995 18.2151 16.4178 18.1662 16.7317C18.1187 17.0542 17.9187 17.3341 17.629 17.4835C16.3017 18.1969 14.7526 18.3776 13.2968 17.989C9.17367 16.9489 3.05716 10.8314 2.01732 6.70209C1.62919 5.24474 1.81022 3.69426 2.52363 2.36551C2.67415 2.07734 2.95373 1.87888 3.27535 1.83186C3.32555 1.82386 3.3763 1.81989 3.42717 1.82004C3.69151 1.81997 3.94487 1.9257 4.1307 2.11369L6.02592 4.00924C6.31755 4.29753 6.40369 4.73463 6.24318 5.11204C6.11904 5.408 5.94191 5.67885 5.72052 5.91118C4.15338 7.47395 5.55595 10.275 7.63842 12.366Z" fill="currentColor"/>
</svg>
